<svg width="237" height="52" viewBox="0 0 237 52" fill="none" xmlns="http://www.w3.org/2000/svg">
<rect x="0.5" width="236" height="52" rx="26" fill="#2091F9"/>
<g clip-path="url(#clip0_65_346)">
<path d="M67.3451 32V19.12H63.1851V17.7H73.2451V19.12H69.0851V32H67.3451ZM74.8952 32V21.54H76.5552V23.42C76.9152 22.7667 77.3552 22.2667 77.8752 21.92C78.4086 21.5733 79.1152 21.3867 79.9952 21.36V22.92C78.8486 22.9733 77.9886 23.24 77.4152 23.72C76.8419 24.2 76.5552 25.0467 76.5552 26.26V32H74.8952ZM83.6524 35.64L85.6324 30.92L81.5324 21.54H83.3124L86.5124 29.04L89.4124 21.54H91.1124L85.3324 35.64H83.6524ZM99.1113 32V17.7H107.471V19.12H100.851V24.18H106.011V25.6H100.851V32H99.1113ZM113.864 30.8C114.904 30.8 115.73 30.44 116.344 29.72C116.97 29 117.284 28.0467 117.284 26.86V26.72C117.284 25.5067 116.97 24.54 116.344 23.82C115.73 23.1 114.904 22.74 113.864 22.74C112.81 22.74 111.977 23.1 111.364 23.82C110.75 24.54 110.444 25.5 110.444 26.7V26.86C110.444 28.06 110.75 29.02 111.364 29.74C111.977 30.4467 112.81 30.8 113.864 30.8ZM113.844 32.18C112.364 32.18 111.137 31.68 110.164 30.68C109.204 29.6667 108.724 28.3933 108.724 26.86V26.7C108.724 25.14 109.204 23.86 110.164 22.86C111.137 21.86 112.37 21.36 113.864 21.36C115.357 21.36 116.584 21.86 117.544 22.86C118.517 23.8467 119.004 25.12 119.004 26.68V26.84C119.004 28.4133 118.517 29.7 117.544 30.7C116.57 31.6867 115.337 32.18 113.844 32.18ZM121.774 32V21.54H123.434V23.42C123.794 22.7667 124.234 22.2667 124.754 21.92C125.287 21.5733 125.994 21.3867 126.874 21.36V22.92C125.727 22.9733 124.867 23.24 124.294 23.72C123.721 24.2 123.434 25.0467 123.434 26.26V32H121.774ZM135.107 32V17.7H143.467V19.12H136.847V24.18H142.007V25.6H136.847V32H135.107ZM145.714 32V21.54H147.374V23.42C147.734 22.7667 148.174 22.2667 148.694 21.92C149.227 21.5733 149.934 21.3867 150.814 21.36V22.92C149.667 22.9733 148.807 23.24 148.234 23.72C147.661 24.2 147.374 25.0467 147.374 26.26V32H145.714ZM157.421 32.18C155.927 32.18 154.707 31.7 153.761 30.74C152.827 29.7667 152.361 28.48 152.361 26.88V26.72C152.361 25.1467 152.814 23.86 153.721 22.86C154.641 21.86 155.821 21.36 157.261 21.36C158.594 21.36 159.707 21.7933 160.601 22.66C161.507 23.5133 161.961 24.8133 161.961 26.56V27.1H154.081C154.121 28.3 154.421 29.22 154.981 29.86C155.554 30.4867 156.374 30.8 157.441 30.8C159.081 30.8 160.007 30.1933 160.221 28.98H161.881C161.707 30.0067 161.221 30.8 160.421 31.36C159.621 31.9067 158.621 32.18 157.421 32.18ZM154.141 25.76H160.261C160.114 23.7467 159.114 22.74 157.261 22.74C156.421 22.74 155.727 23.0133 155.181 23.56C154.634 24.0933 154.287 24.8267 154.141 25.76ZM168.988 32.18C167.494 32.18 166.274 31.7 165.328 30.74C164.394 29.7667 163.928 28.48 163.928 26.88V26.72C163.928 25.1467 164.381 23.86 165.288 22.86C166.208 21.86 167.388 21.36 168.828 21.36C170.161 21.36 171.274 21.7933 172.168 22.66C173.074 23.5133 173.528 24.8133 173.528 26.56V27.1H165.648C165.688 28.3 165.988 29.22 166.548 29.86C167.121 30.4867 167.941 30.8 169.008 30.8C170.648 30.8 171.574 30.1933 171.788 28.98H173.448C173.274 30.0067 172.788 30.8 171.988 31.36C171.188 31.9067 170.188 32.18 168.988 32.18ZM165.708 25.76H171.828C171.681 23.7467 170.681 22.74 168.828 22.74C167.988 22.74 167.294 23.0133 166.748 23.56C166.201 24.0933 165.854 24.8267 165.708 25.76Z" fill="white"/>
</g>
<defs>
<clipPath id="clip0_65_346">
<rect width="112" height="20" fill="white" transform="translate(62.5 16)"/>
</clipPath>
</defs>
</svg>
